<svg xmlns="http://www.w3.org/2000/svg" xmlns:xlink="http://www.w3.org/1999/xlink" width="142" zoomAndPan="magnify" viewBox="0 0 106.5 106.499998" height="142" preserveAspectRatio="xMidYMid meet" version="1.0"><defs><clipPath id="3dfafe41a9"><path d="M 0 0 L 106.003906 0 L 106.003906 106.003906 L 0 106.003906 Z M 0 0 " clip-rule="nonzero"/></clipPath><clipPath id="5cd4e23d65"><path d="M 34 34 L 94 34 L 94 99 L 34 99 Z M 34 34 " clip-rule="nonzero"/></clipPath><clipPath id="0c262cb629"><path d="M 56.171875 26.652344 L 101.226562 83.121094 L 72.546875 106.003906 L 27.488281 49.539062 Z M 56.171875 26.652344 " clip-rule="nonzero"/></clipPath><clipPath id="01db2b15a6"><path d="M 89.78125 68.777344 C 96.101562 76.699219 94.804688 88.242188 86.882812 94.5625 C 78.964844 100.878906 67.421875 99.582031 61.101562 91.664062 L 38.933594 63.878906 C 32.613281 55.960938 33.910156 44.414062 41.832031 38.097656 C 49.75 31.777344 61.292969 33.074219 67.613281 40.992188 Z M 89.78125 68.777344 " clip-rule="nonzero"/></clipPath><clipPath id="3def496221"><path d="M 12.496094 7.585938 L 49.191406 7.585938 L 49.191406 97.742188 L 12.496094 97.742188 Z M 12.496094 7.585938 " clip-rule="nonzero"/></clipPath><clipPath id="6ece5812f2"><path d="M 49.191406 79.339844 C 49.191406 89.472656 40.976562 97.683594 30.84375 97.683594 C 20.710938 97.683594 12.496094 89.472656 12.496094 79.339844 L 12.496094 25.933594 C 12.496094 15.800781 20.710938 7.585938 30.84375 7.585938 C 40.976562 7.585938 49.191406 15.800781 49.191406 25.933594 Z M 49.191406 79.339844 " clip-rule="nonzero"/></clipPath><clipPath id="d1ed599e95"><path d="M 12 7 L 94 7 L 94 99 L 12 99 Z M 12 7 " clip-rule="nonzero"/></clipPath><clipPath id="fae98919ac"><path d="M 101.222656 23.335938 L 33.027344 106.0625 L 4.714844 82.722656 L 72.910156 -0.00390625 Z M 101.222656 23.335938 " clip-rule="nonzero"/></clipPath><clipPath id="bcd8bf7dde"><path d="M 44.75 91.84375 C 38.304688 99.660156 26.742188 100.773438 18.925781 94.328125 C 11.105469 87.882812 9.992188 76.320312 16.4375 68.503906 L 61.242188 14.152344 C 67.683594 6.335938 79.25 5.222656 87.066406 11.667969 C 94.886719 18.113281 96 29.675781 89.554688 37.492188 Z M 44.75 91.84375 " clip-rule="nonzero"/></clipPath></defs><g clip-path="url(#3dfafe41a9)"><path fill="#ffffff" d="M 0 0 L 106.003906 0 L 106.003906 106.003906 L 0 106.003906 Z M 0 0 " fill-opacity="1" fill-rule="nonzero"/><path fill="#ffffff" d="M 0 0 L 106.003906 0 L 106.003906 106.003906 L 0 106.003906 Z M 0 0 " fill-opacity="1" fill-rule="nonzero"/></g><g clip-path="url(#5cd4e23d65)"><g clip-path="url(#0c262cb629)"><g clip-path="url(#01db2b15a6)"><path fill="#2f2f2f" d="M 56.171875 26.652344 L 101.226562 83.121094 L 72.546875 106.003906 L 27.488281 49.539062 Z M 56.171875 26.652344 " fill-opacity="1" fill-rule="nonzero"/></g></g></g><g clip-path="url(#3def496221)"><g clip-path="url(#6ece5812f2)"><path fill="#000000" d="M 49.191406 7.585938 L 49.191406 97.742188 L 12.496094 97.742188 L 12.496094 7.585938 Z M 49.191406 7.585938 " fill-opacity="1" fill-rule="nonzero"/></g></g><g clip-path="url(#d1ed599e95)"><g clip-path="url(#fae98919ac)"><g clip-path="url(#bcd8bf7dde)"><path fill="#2f2f2f" d="M 101.222656 23.335938 L 33.117188 105.953125 L 4.804688 82.613281 L 72.910156 -0.00390625 Z M 101.222656 23.335938 " fill-opacity="1" fill-rule="nonzero"/></g></g></g></svg>